<?xml version="1.0" encoding="UTF-8" standalone="no"?>
<svg
   xmlns:dc="http://purl.org/dc/elements/1.1/"
   xmlns:cc="http://creativecommons.org/ns#"
   xmlns:rdf="http://www.w3.org/1999/02/22-rdf-syntax-ns#"
   xmlns:svg="http://www.w3.org/2000/svg"
   xmlns="http://www.w3.org/2000/svg"
   xmlns:sodipodi="http://sodipodi.sourceforge.net/DTD/sodipodi-0.dtd"
   xmlns:inkscape="http://www.inkscape.org/namespaces/inkscape"
   width="210mm"
   height="297mm"
   viewBox="0 0 210 297"
   version="1.1"
   id="svg1827"
   inkscape:version="1.0.2-2 (e86c870879, 2021-01-15)"
   sodipodi:docname="index_res.svg">
  <defs
     id="defs1821">
    <style
       id="style2348">.cls-1{fill:none;stroke:#000;stroke-linecap:round;stroke-linejoin:round;stroke-width:2px;}</style>
  </defs>
  <sodipodi:namedview
     id="base"
     pagecolor="#ffffff"
     bordercolor="#666666"
     borderopacity="1.0"
     inkscape:pageopacity="0.0"
     inkscape:pageshadow="2"
     inkscape:zoom="0.69931958"
     inkscape:cx="396.85039"
     inkscape:cy="561.25984"
     inkscape:document-units="mm"
     inkscape:current-layer="layer1"
     inkscape:document-rotation="0"
     showgrid="false"
     inkscape:window-width="1920"
     inkscape:window-height="1017"
     inkscape:window-x="1912"
     inkscape:window-y="-8"
     inkscape:window-maximized="1" />
  <metadata
     id="metadata1824">
    <rdf:RDF>
      <cc:Work
         rdf:about="">
        <dc:format>image/svg+xml</dc:format>
        <dc:type
           rdf:resource="http://purl.org/dc/dcmitype/StillImage" />
        <dc:title></dc:title>
      </cc:Work>
    </rdf:RDF>
  </metadata>
  <g
     inkscape:label="レイヤー 1"
     inkscape:groupmode="layer"
     id="layer1">
    <rect
       style="fill:#00ff00;stroke-width:0.239271"
       id="rect16"
       width="46.625572"
       height="45.308624"
       x="0.14454158"
       y="0.61384648"
       ry="4.9501901"
       rx="4.9501901" />
    <text
       xml:space="preserve"
       style="font-style:normal;font-weight:normal;font-size:10.5833px;line-height:1.25;font-family:sans-serif;fill:#000000;fill-opacity:1;stroke:none;stroke-width:0.264583"
       x="12.005866"
       y="25.776119"
       id="text20"><tspan
         sodipodi:role="line"
         id="tspan18"
         x="12.005866"
         y="25.776119"
         style="fill:#000000;stroke-width:0.264583">ロゴ</tspan><tspan
         sodipodi:role="line"
         x="12.005866"
         y="39.005245"
         style="fill:#000000;stroke-width:0.264583"
         id="tspan22" /></text>
    <ellipse
       style="fill:#ffff00;stroke-width:0.405601"
       id="path28"
       cx="101.39617"
       cy="22.511465"
       rx="21.52319"
       ry="21.993048" />
    <text
       xml:space="preserve"
       style="font-style:normal;font-weight:normal;font-size:7.87067px;line-height:1.25;font-family:sans-serif;fill:#000000;fill-opacity:1;stroke:none;stroke-width:0.196767"
       x="120.98678"
       y="19.6646"
       id="text32"
       transform="scale(0.74368805,1.3446498)"
       inkscape:transform-center-x="-4.1617834"
       inkscape:transform-center-y="0.7566879"><tspan
         sodipodi:role="line"
         id="tspan30"
         x="120.98678"
         y="19.6646"
         style="stroke-width:0.196767">アイコン</tspan></text>
    <rect
       style="fill:#ff0000;stroke-width:0.18418"
       id="rect24"
       width="49.90007"
       height="45.686966"
       x="161.19519"
       y="0.61383611"
       ry="4.4888821"
       rx="4.4888821" />
    <rect
       style="fill:#00ffff;stroke-width:0.487582"
       id="rect40"
       width="51.460327"
       height="43.66991"
       x="0.37556991"
       y="253.41028"
       ry="8.3390274"
       rx="8.3390274" />
    <rect
       style="fill:#00ffff;stroke-width:0.49293"
       id="rect2065"
       width="52.59536"
       height="43.669914"
       x="51.835896"
       y="253.41028"
       ry="8.3390274"
       rx="8.3390274" />
    <rect
       style="fill:#00ffff;stroke-width:0.500374"
       id="rect2067"
       width="53.730404"
       height="44.048264"
       x="104.43126"
       y="253.41028"
       ry="8.3390274"
       rx="8.3390274" />
    <rect
       style="fill:#00ffff;stroke-width:0.498608"
       id="rect2069"
       width="53.352032"
       height="44.048267"
       x="158.16167"
       y="253.41028"
       ry="8.3390274"
       rx="8.3390274" />
    <path
       style="fill:none;stroke:#000000;stroke-width:0.213742px;stroke-linecap:butt;stroke-linejoin:miter;stroke-opacity:1"
       d="M 0.14454158,45.92247 208.00892,46.25667"
       id="path146-6" />
    <ellipse
       style="fill:#ffff00;stroke-width:0.405601"
       id="ellipse2107"
       cx="21.943943"
       cy="68.669426"
       rx="21.52319"
       ry="21.993048" />
    <text
       xml:space="preserve"
       style="font-style:normal;font-weight:normal;font-size:10.5833px;line-height:1.25;font-family:sans-serif;fill:#000000;fill-opacity:1;stroke:none;stroke-width:0.264583"
       x="6.0535016"
       y="73.39872"
       id="text2111"><tspan
         sodipodi:role="line"
         id="tspan2109"
         x="6.0535016"
         y="73.39872"
         style="stroke-width:0.264583">投稿者</tspan></text>
    <rect
       style="fill:#ff00ff;stroke-width:0.323198"
       id="rect126"
       width="86.413048"
       height="20.732647"
       x="46.27182"
       y="58.604065"
       ry="5.7056594"
       rx="5.7056599" />
    <text
       xml:space="preserve"
       style="font-style:normal;font-weight:normal;font-size:10.5833px;line-height:1.25;font-family:sans-serif;fill:#000000;fill-opacity:1;stroke:none;stroke-width:0.264583"
       x="56.534542"
       y="73.019646"
       id="text130"><tspan
         sodipodi:role="line"
         id="tspan128"
         x="56.534542"
         y="73.019646"
         style="stroke-width:0.264583">ニックネーム</tspan><tspan
         sodipodi:role="line"
         x="56.534542"
         y="86.248772"
         style="stroke-width:0.264583"
         id="tspan132" /></text>
    <rect
       style="fill:#800080;stroke-width:0.327535"
       id="rect134"
       width="165.21797"
       height="25.861309"
       x="44.892929"
       y="87.519669"
       ry="3.1207755"
       rx="3.1207755" />
    <text
       xml:space="preserve"
       style="font-style:normal;font-weight:normal;font-size:10.5833px;line-height:1.25;font-family:sans-serif;fill:#000000;fill-opacity:1;stroke:none;stroke-width:0.264583"
       x="108.10301"
       y="105.19954"
       id="text138"><tspan
         sodipodi:role="line"
         id="tspan136"
         x="108.10301"
         y="105.19954"
         style="stroke-width:0.264583">投稿内容</tspan></text>
    <rect
       style="fill:#800000;stroke-width:0.441918"
       id="rect140"
       width="165.21797"
       height="105.5826"
       x="44.892929"
       y="113.38098"
       ry="5.7056599"
       rx="5.7056599" />
    <text
       xml:space="preserve"
       style="font-style:normal;font-weight:normal;font-size:21.7846px;line-height:1.25;font-family:sans-serif;fill:#000000;fill-opacity:1;stroke:none;stroke-width:0.544616"
       x="110.14798"
       y="161.18677"
       id="text144"
       transform="scale(0.96448246,1.0368255)"><tspan
         sodipodi:role="line"
         id="tspan142"
         x="110.14798"
         y="161.18677"
         style="stroke-width:0.544616">写真</tspan></text>
    <path
       style="fill:none;stroke:#000000;stroke-width:0.213742px;stroke-linecap:butt;stroke-linejoin:miter;stroke-opacity:1"
       d="M 1.6579174,226.77088 209.5223,227.10508"
       id="path2249" />
    <text
       xml:space="preserve"
       style="font-style:normal;font-weight:normal;font-size:10.5833px;line-height:1.25;font-family:sans-serif;fill:#000000;fill-opacity:1;stroke:none;stroke-width:0.264583"
       x="84.391365"
       y="244.40947"
       id="text170"><tspan
         sodipodi:role="line"
         id="tspan168"
         x="84.391365"
         y="244.40947"
         style="stroke-width:0.264583">次の投稿</tspan></text>
    <path
       style="fill:none;stroke:#000000;stroke-width:0.213742px;stroke-linecap:butt;stroke-linejoin:miter;stroke-opacity:1"
       d="M 0.37556991,253.41028 208.23995,253.74448"
       id="path2275" />
    <g
       id="logout"
       transform="matrix(1.2423793,0,0,1.3642292,164.25392,254.24636)">
      <line
         class="cls-1"
         x1="15.92"
         x2="28.92"
         y1="16"
         y2="16"
         id="line2354" />
      <path
         d="m 23.93,25 v 3 h -16 V 4 h 16 v 3 h 2 V 3 a 1,1 0 0 0 -1,-1 h -18 a 1,1 0 0 0 -1,1 v 26 a 1,1 0 0 0 1,1 h 18 a 1,1 0 0 0 1,-1 v -4 z"
         id="path2356" />
      <line
         class="cls-1"
         x1="28.92"
         x2="24.92"
         y1="16"
         y2="20"
         id="line2358" />
      <line
         class="cls-1"
         x1="28.92"
         x2="24.92"
         y1="16"
         y2="12"
         id="line2360" />
      <line
         class="cls-1"
         x1="24.92"
         x2="24.92"
         y1="8.0900002"
         y2="6.0900002"
         id="line2362" />
      <line
         class="cls-1"
         x1="24.92"
         x2="24.92"
         y1="26"
         y2="24"
         id="line2364" />
    </g>
    <g
       id="g2510"
       transform="matrix(1.3571026,0,0,1.2072434,-8.4473267,103.00964)">
      <path
         d="M 36.046266,155.97529 H 13.370042 V 143.25534 H 11.55079 c -1.172979,0 -1.7203009,-1.50413 -0.836959,-2.29807 l 12.067875,-11.75216 c 1.080212,-1.05258 2.771653,-1.05258 3.851866,0 l 12.066843,11.75216 c 0.884373,0.79288 0.337051,2.29807 -0.836959,2.29807 h -1.81719 z"
         fill="none"
         id="XMLID_1_"
         stroke="#000000"
         stroke-linecap="round"
         stroke-linejoin="round"
         stroke-miterlimit="10"
         stroke-width="2.09053" />
      <path
         d="m 29.06194,154.90939 h -9.340935 v -6.44847 c 0,-2.37411 2.091202,-4.29898 4.670468,-4.29898 v 0 c 2.579265,0 4.670467,1.92487 4.670467,4.29898 z"
         fill="none"
         id="XMLID_2_"
         stroke="#000000"
         stroke-linecap="round"
         stroke-linejoin="round"
         stroke-miterlimit="10"
         stroke-width="2.24044" />
    </g>
    <g
       id="g2537"
       transform="matrix(0.79923831,0,0,0.71693544,160.75907,0.14369715)">
      <path
         d="M 55.736,13.636 51.368,9.274 C 50.917,8.823 50.324,8.597 49.732,8.597 c -0.592,0 -1.184,0.225 -1.635,0.676 l -3.494,3.484 7.639,7.626 3.494,-3.483 c 0.903,-0.902 0.903,-2.365 0,-3.264 z"
         id="path2529" />
      <polygon
         points="50.607,22.017 42.967,14.39 21.922,35.396 29.562,43.023 "
         id="polygon2531" />
      <polygon
         points="20.273,37.028 18.642,46.28 27.913,44.654 "
         id="polygon2533" />
      <path
         d="M 41.393,50.403 H 12.587 V 21.597 h 20.329 l 5.01,-5 H 10.82 c -1.779,0 -3.234,1.455 -3.234,3.234 V 52.17 c 0,1.779 1.455,3.234 3.234,3.234 h 32.339 c 1.779,0 3.234,-1.455 3.234,-3.234 V 29.049 l -5,4.991 z"
         id="path2535" />
    </g>
    <g
       id="g2596"
       transform="matrix(0.85166752,0,0,0.80742464,57.890199,256.0562)">
      <path
         d="M 24,21 A 10,10 0 1 1 34,11 10,10 0 0 1 24,21 Z M 24,5 a 6,6 0 1 0 6,6 6,6 0 0 0 -6,-6 z"
         id="path2583" />
      <path
         d="M 42,47 H 6 A 2,2 0 0 1 4,45 V 39 A 16,16 0 0 1 20,23 h 8 a 16,16 0 0 1 16,16 v 6 a 2,2 0 0 1 -2,2 z M 8,43 H 40 V 39 A 12,12 0 0 0 28,27 H 20 A 12,12 0 0 0 8,39 Z"
         id="path2585" />
    </g>
    <g
       data-name="1"
       id="_1"
       transform="matrix(0.09226303,0,0,0.09226303,108.07335,253.0929)">
      <path
         d="M 221.12,389.43 A 173.22,173.22 0 0 1 98.25,338.61 c -67.75,-67.75 -67.75,-178 0,-245.74 67.75,-67.74 178,-67.75 245.74,0 A 173.69,173.69 0 0 1 221.12,389.43 Z m 0,-317.39 a 143.37,143.37 0 0 0 -101.66,42 c -56,56.06 -56,147.26 0,203.32 A 143.77,143.77 0 1 0 322.78,114.08 v 0 A 143.35,143.35 0 0 0 221.12,72 Z"
         id="path2672" />
      <path
         d="m 221.12,332.16 a 116.42,116.42 0 1 1 82.36,-34.06 116.1,116.1 0 0 1 -82.36,34.06 z m 0,-202.86 a 86.44,86.44 0 1 0 61.15,25.29 86.22,86.22 0 0 0 -61.15,-25.29 z"
         id="path2674" />
      <path
         d="m 414.82,450.44 a 40.78,40.78 0 0 1 -29,-12 L 302.89,355.5 a 15.004806,15.004806 0 0 1 21.22,-21.22 L 407,417.21 a 11,11 0 1 0 15.55,-15.55 l -82.93,-82.93 a 15.004806,15.004806 0 1 1 21.22,-21.22 l 82.93,82.93 a 41,41 0 0 1 -29,70 z"
         id="path2676" />
    </g>
  </g>
</svg>
